<svg width="512" height="512" viewBox="0 0 512 512" fill="none" xmlns="http://www.w3.org/2000/svg">
  <defs>
    <linearGradient id="gradient" x1="0%" y1="0%" x2="100%" y2="100%">
      <stop offset="0%" style="stop-color:#2563eb;stop-opacity:1" />
      <stop offset="100%" style="stop-color:#1d4ed8;stop-opacity:1" />
    </linearGradient>
  </defs>
  
  <!-- Background Circle -->
  <circle cx="256" cy="256" r="240" fill="url(#gradient)" stroke="#ffffff" stroke-width="8"/>
  
  <!-- Medical Cross -->
  <rect x="226" y="156" width="60" height="200" rx="8" fill="#ffffff"/>
  <rect x="156" y="226" width="200" height="60" rx="8" fill="#ffffff"/>
  
  <!-- Stethoscope -->
  <path d="M180 180 Q160 160 140 180 Q120 200 140 220 Q160 240 180 220 Q200 200 180 180" 
        fill="none" stroke="#ffffff" stroke-width="8" stroke-linecap="round"/>
  <circle cx="140" cy="200" r="12" fill="#ffffff"/>
  <path d="M180 180 Q240 140 320 180 Q360 200 360 240 Q360 280 320 300 Q280 320 240 300" 
        fill="none" stroke="#ffffff" stroke-width="6" stroke-linecap="round"/>
  <circle cx="350" cy="240" r="16" fill="#ffffff"/>
  <circle cx="350" cy="240" r="8" fill="url(#gradient)"/>
  
  <!-- Chart/Graph Elements -->
  <rect x="80" y="360" width="120" height="8" rx="4" fill="#ffffff" opacity="0.8"/>
  <rect x="80" y="380" width="80" height="8" rx="4" fill="#ffffff" opacity="0.6"/>
  <rect x="80" y="400" width="100" height="8" rx="4" fill="#ffffff" opacity="0.7"/>
  
  <!-- Heartbeat Line -->
  <path d="M320 380 L340 380 L350 360 L360 400 L370 340 L380 420 L390 380 L420 380" 
        fill="none" stroke="#ffffff" stroke-width="4" stroke-linecap="round" opacity="0.9"/>
</svg>
